<svg xmlns="http://www.w3.org/2000/svg" viewBox="0 0 64 64"><g data-name="01 Thumbnail"><path d="M60 60H4a4 4 0 0 1-4-4V8a4 4 0 0 1 4-4h56a4 4 0 0 1 4 4v48a4 4 0 0 1-4 4ZM4 6a2 2 0 0 0-2 2v48a2 2 0 0 0 2 2h56a2 2 0 0 0 2-2V8a2 2 0 0 0-2-2Z"/><path d="M34 22a4 4 0 1 1 4-4 4 4 0 0 1-4 4Zm0-6a2 2 0 1 0 2 2 2 2 0 0 0-2-2Z"/><path d="M56 9H8a3 3 0 0 0-3 3v30a3 3 0 0 0 3 3h45a1 1 0 0 0 0-2H8a1 1 0 0 1-1-1v-.664l14.421-19.564a2.062 2.062 0 0 1 3.158 0L36.9 37.614a1 1 0 1 0 1.579-1.228l-2.685-3.452 5.633-7.17A2.016 2.016 0 0 1 43 25a1.983 1.983 0 0 1 1.5.671l9.722 12.191a1 1 0 0 0 1.564-1.247L46.037 24.4a4.039 4.039 0 0 0-3.12-1.4 3.985 3.985 0 0 0-3.059 1.528l-5.326 6.779-8.374-10.763a4 4 0 0 0-6.331.021L7 37.965V12a1 1 0 0 1 1-1h48a1 1 0 0 1 1 1v30a1 1 0 0 1-1 1 1 1 0 0 0 0 2 3 3 0 0 0 3-3V12a3 3 0 0 0-3-3zM8 55a1 1 0 0 1-1-1v-6a1 1 0 0 1 1.515-.857l5 3a1 1 0 0 1 0 1.714l-5 3A.994.994 0 0 1 8 55zm1-5.234v2.468L11.056 51zM19 54a3 3 0 1 1 3-3 3 3 0 0 1-3 3zm0-4a1 1 0 1 0 1 1 1 1 0 0 0-1-1zm37 2H24a1 1 0 0 1 0-2h32a1 1 0 0 1 0 2z"/></g></svg>